{"title":"Mard.Ki.Zabaan.2.(Soukhyam).(2017).720p.WEBHD.Dual.Audio.[Hindi]","magnet":"magnet:?xt=urn:btih:f38e79851d38c8081260c917e87023e0c9300cb8&dn=Mard.Ki.Zabaan.2.%28Soukhyam%29.%282017%29.720p.WEBHD.Dual.Audio.%5BHindi%5D&tr=udp%3A%2F%2Ftracker.leechers-paradise.org%3A6969&tr=udp%3A%2F%2Fzer0day.ch%3A1337&tr=udp%3A%2F%2Fopen.demonii.com%3A1337&tr=udp%3A%2F%2Ftracker.coppersurfer.tk%3A6969&tr=udp%3A%2F%2Fexodus.desync.com%3A6969","uploader":"makintos13","categoryP":"video","categoryS":"hd___movies","size":"2322541311","seeders":"6","leechers":"33","description":"screens:\r\n <a href=\"\nhttps://imgmak.com/z1m\" rel=\"nofollow\" target=\"_NEW\">\nhttps://imgmak.com/z1m</a>\r\n <a href=\"\nhttps://imgmak.com/z1u\" rel=\"nofollow\" target=\"_NEW\">\nhttps://imgmak.com/z1u</a>\r\n <a href=\"\nhttps://imgmak.com/z15\" rel=\"nofollow\" target=\"_NEW\">\nhttps://imgmak.com/z15</a>\r\n <a href=\"\nhttps://imgmak.com/z11\" rel=\"nofollow\" target=\"_NEW\">\nhttps://imgmak.com/z11</a>\r\n <a href=\"\nhttps://imgmak.com/z1U\" rel=\"nofollow\" target=\"_NEW\">\nhttps://imgmak.com/z1U</a>\r\n\r\n\r\nSource                      : Over Net\r\nFormat                      : Matroska\r\nFormat version              : Version 4 / Version 2\r\nFile size                   : 2.16 GiB\r\nDuration                    : 2 h 10 min\r\nOverall bit rate            : 2 365 kb/s\r\nEncoded date                : UTC 2017-06-17 13:13:43\r\nWriting application         : mkvmerge v8.1.0 (&apos;Psychedelic Postcard&apos;) 32bit\r\nWriting library             : libebml v1.3.1 + libmatroska v1.4.2\r\n\r\nVideo\r\nID                          : 1\r\nFormat                      : AVC\r\nFormat/Info                 : Advanced Video Codec\r\nFormat profile              : <a class=\"__cf_email__\" href=\"/cdn-cgi/l/email-protection\" data-cfemail=\"612c00080f212d524f50\">[email&#xA0;protected]</a><script data-cfhash=\"f9e31\" type=\"text/javascript\">/* <![CDATA[ */!function(t,e,r,n,c,a,p){try{t=document.currentScript||function(){for(t=document.getElementsByTagName('script'),e=t.length;e--;)if(t[e].getAttribute('data-cfhash'))return t[e]}();if(t&&(c=t.previousSibling)){p=t.parentNode;if(a=c.getAttribute('data-cfemail')){for(e='',r='0x'+a.substr(0,2)|0,n=2;a.length-n;n+=2)e+='%'+('0'+('0x'+a.substr(n,2)^r).toString(16)).slice(-2);p.replaceChild(document.createTextNode(decodeURIComponent(e)),c)}p.removeChild(t)}}catch(u){}}()/* ]]> */</script>\r\nFormat settings, CABAC      : Yes\r\nFormat settings, ReFrames   : 4 frames\r\nCodec ID                    : V_MPEG4/ISO/AVC\r\nDuration                    : 2 h 10 min\r\nBit rate                    : 2 066 kb/s\r\nNominal bit rate            : 2 500 kb/s\r\nWidth                       : 1 280 pixels\r\nHeight                      : 720 pixels\r\nDisplay aspect ratio        : 16:9\r\nFrame rate mode             : Constant\r\nFrame rate                  : 25.000 FPS\r\nColor space                 : YUV\r\nChroma subsampling          : 4:2:0\r\nBit depth                   : 8 bits\r\nScan type                   : Progressive\r\nBits/(Pixel*Frame)          : 0.090\r\nStream size                 : 1.89 GiB (87%)\r\nWriting library             : x264 core 148 r2694 3b70645\r\nDefault                     : Yes\r\nForced                      : No\r\n\r\nAudio #1\r\nID                          : 2\r\nFormat                      : AAC\r\nFormat/Info                 : Advanced Audio Codec\r\nFormat profile              : LC\r\nCodec ID                    : A_AAC\r\nDuration                    : 2 h 10 min\r\nBit rate                    : 165 kb/s\r\nChannel(s)                  : 2 channels\r\nChannel positions           : Front: L R\r\nSampling rate               : 48.0 kHz\r\nFrame rate                  : 46.875 FPS (1024 spf)\r\nCompression mode            : Lossy\r\nStream size                 : 154 MiB (7%)\r\nLanguage                    : Hindi\r\nDefault                     : Yes\r\nForced                      : Yes\r\n\r\nAudio #2\r\nID                          : 3\r\nFormat                      : AAC\r\nFormat/Info                 : Advanced Audio Codec\r\nFormat profile              : LC\r\nCodec ID                    : A_AAC\r\nDuration                    : 2 h 10 min\r\nBit rate                    : 132 kb/s\r\nChannel(s)                  : 2 channels\r\nChannel positions           : Front: L R\r\nSampling rate               : 44.1 kHz\r\nFrame rate                  : 43.066 FPS (1024 spf)\r\nCompression mode            : Lossy\r\nStream size                 : 123 MiB (6%)\r\nLanguage                    : Telugu\r\nDefault                     : No\r\nForced                      : No","last_updated":"2017-06-18T12:00:58.574Z","parsed":{"xt":"urn:btih:f38e79851d38c8081260c917e87023e0c9300cb8","dn":"Mard.Ki.Zabaan.2.(Soukhyam).(2017).720p.WEBHD.Dual.Audio.[Hindi]","tr":["udp://exodus.desync.com:6969","udp://open.demonii.com:1337","udp://tracker.coppersurfer.tk:6969","udp://tracker.leechers-paradise.org:6969","udp://zer0day.ch:1337"],"infoHash":"f38e79851d38c8081260c917e87023e0c9300cb8","infoHashBuffer":{"type":"Buffer","data":[243,142,121,133,29,56,200,8,18,96,201,23,232,112,35,224,201,48,12,184]},"name":"Mard.Ki.Zabaan.2.(Soukhyam).(2017).720p.WEBHD.Dual.Audio.[Hindi]","announce":["udp://exodus.desync.com:6969","udp://open.demonii.com:1337","udp://tracker.coppersurfer.tk:6969","udp://tracker.leechers-paradise.org:6969","udp://zer0day.ch:1337"],"urlList":[]}}